<svg width="44" height="45" viewBox="0 0 44 45" fill="none" xmlns="http://www.w3.org/2000/svg">
<path d="M25.852 19.9488H21.264V10.9678H25.852C28.328 10.9678 30.342 12.9818 30.342 15.4578C30.342 17.9338 28.328 19.9488 25.852 19.9488ZM22.735 18.4778H25.852C27.517 18.4778 28.871 17.1228 28.871 15.4588C28.871 13.7948 27.516 12.4398 25.852 12.4398H22.735V18.4778ZM22.735 19.9488H18.148C15.672 19.9488 13.658 17.9348 13.658 15.4588C13.658 12.9828 15.672 10.9678 18.148 10.9678H22.736V19.9488H22.735ZM18.148 12.4388C16.483 12.4388 15.129 13.7938 15.129 15.4578C15.129 17.1218 16.483 18.4778 18.148 18.4778H21.265V12.4388H18.148ZM22.735 27.4578H18.148C15.672 27.4578 13.658 25.4438 13.658 22.9678C13.658 20.4918 15.672 18.4778 18.148 18.4778H22.736V27.4578H22.735ZM18.148 19.9488C16.483 19.9488 15.129 21.3038 15.129 22.9678C15.129 24.6318 16.484 25.9868 18.148 25.9868H21.265V19.9488H18.148ZM18.172 34.9678C15.683 34.9678 13.657 32.9538 13.657 30.4778C13.657 28.0018 15.671 25.9878 18.147 25.9878H22.735V30.4288C22.735 32.9318 20.688 34.9678 18.172 34.9678ZM18.148 27.4578C17.3476 27.4588 16.5803 27.7772 16.0144 28.3432C15.4485 28.9091 15.13 29.6764 15.129 30.4768C15.129 32.1418 16.494 33.4958 18.173 33.4958C19.878 33.4958 21.266 32.1198 21.266 30.4278V27.4578H18.148ZM25.852 27.4578H25.754C23.278 27.4578 21.264 25.4438 21.264 22.9678C21.264 20.4918 23.278 18.4778 25.754 18.4778H25.852C28.328 18.4778 30.342 20.4918 30.342 22.9678C30.342 25.4438 28.328 27.4578 25.852 27.4578ZM25.755 19.9488C24.09 19.9488 22.736 21.3038 22.736 22.9678C22.736 24.6318 24.091 25.9868 25.755 25.9868H25.853C27.518 25.9868 28.872 24.6318 28.872 22.9678C28.872 21.3038 27.516 19.9488 25.852 19.9488H25.755Z" fill="#8B5CF6"/>
</svg>
