<svg width="44" height="45" viewBox="0 0 44 45" fill="none" xmlns="http://www.w3.org/2000/svg">
<rect y="0.967773" width="44" height="44" rx="5" fill="#FAFAFA"/>
<path d="M22 10.9678C15.37 10.9678 10 16.3378 10 22.9678C10 28.2778 13.435 32.7628 18.205 34.3528C18.805 34.4578 19.03 34.0978 19.03 33.7828C19.03 33.4978 19.015 32.5528 19.015 31.5478C16 32.1028 15.22 30.8128 14.98 30.1378C14.845 29.7928 14.26 28.7278 13.75 28.4428C13.33 28.2178 12.73 27.6628 13.735 27.6478C14.68 27.6328 15.355 28.5178 15.58 28.8778C16.66 30.6928 18.385 30.1828 19.075 29.8678C19.18 29.0878 19.495 28.5628 19.84 28.2628C17.17 27.9628 14.38 26.9278 14.38 22.3378C14.38 21.0328 14.845 19.9528 15.61 19.1128C15.49 18.8128 15.07 17.5828 15.73 15.9328C15.73 15.9328 16.735 15.6178 19.03 17.1628C19.99 16.8928 21.01 16.7578 22.03 16.7578C23.05 16.7578 24.07 16.8928 25.03 17.1628C27.325 15.6028 28.33 15.9328 28.33 15.9328C28.99 17.5828 28.57 18.8128 28.45 19.1128C29.215 19.9528 29.68 21.0178 29.68 22.3378C29.68 26.9428 26.875 27.9628 24.205 28.2628C24.64 28.6378 25.015 29.3578 25.015 30.4828C25.015 32.0878 25 33.3778 25 33.7828C25 34.0978 25.225 34.4728 25.825 34.3528C28.2073 33.5488 30.2775 32.0178 31.744 29.9754C33.2106 27.933 33.9996 25.4821 34 22.9678C34 16.3378 28.63 10.9678 22 10.9678Z" fill="black"/>
</svg>
