<svg width="44" height="45" viewBox="0 0 44 45" fill="none" xmlns="http://www.w3.org/2000/svg">
<path d="M31.6399 23.9678C31.4955 23.8485 31.3206 23.7721 31.135 23.7474C30.9493 23.7226 30.7605 23.7505 30.5899 23.8278C29.5325 24.3117 28.3828 24.5607 27.2199 24.5578C25.0687 24.5552 23.0059 23.7022 21.481 22.1849C19.9562 20.6676 19.0931 18.6089 19.0799 16.4578C19.0845 15.7836 19.1684 15.1123 19.3299 14.4578C19.3642 14.2833 19.3513 14.1029 19.2926 13.9351C19.234 13.7672 19.1316 13.6181 18.9961 13.5029C18.8606 13.3878 18.6969 13.3109 18.5218 13.2801C18.3467 13.2493 18.1665 13.2658 17.9999 13.3278C16.4322 14.0327 15.0695 15.1246 14.0396 16.5008C13.0098 17.877 12.3468 19.4924 12.1127 21.1953C11.8787 22.8981 12.0814 24.6326 12.7018 26.2356C13.3221 27.8386 14.3398 29.2576 15.6592 30.3593C16.9786 31.461 18.5564 32.2092 20.2443 32.5336C21.9323 32.8581 23.675 32.7481 25.3088 32.214C26.9426 31.68 28.4139 30.7394 29.5843 29.4806C30.7547 28.2218 31.586 26.6861 31.9999 25.0178C32.0503 24.8268 32.043 24.6251 31.979 24.4383C31.9149 24.2514 31.7969 24.0877 31.6399 23.9678ZM22.1399 30.6578C20.4617 30.646 18.8281 30.1157 17.4629 29.1395C16.0977 28.1634 15.0676 26.7891 14.5136 25.2049C13.9596 23.6207 13.9088 21.904 14.3682 20.2898C14.8276 18.6756 15.7747 17.2429 17.0799 16.1878V16.4578C17.0825 19.1463 18.1517 21.7239 20.0528 23.6249C21.9538 25.526 24.5314 26.5952 27.2199 26.5978C27.9258 26.6004 28.6299 26.5266 29.3199 26.3778C28.6298 27.6833 27.5964 28.7756 26.331 29.5369C25.0657 30.2983 23.6166 30.6996 22.1399 30.6978V30.6578Z" fill="#FAFAFA"/>
</svg>
