<svg width="44" height="45" viewBox="0 0 44 45" fill="none" xmlns="http://www.w3.org/2000/svg">
<path d="M15.64 27.9678L14.93 28.6778C14.7437 28.8651 14.6392 29.1186 14.6392 29.3828C14.6392 29.647 14.7437 29.9004 14.93 30.0878C15.1174 30.274 15.3708 30.3786 15.635 30.3786C15.8992 30.3786 16.1526 30.274 16.34 30.0878L17.05 29.3778C17.2138 29.1865 17.2994 28.9404 17.2897 28.6887C17.28 28.437 17.1757 28.1983 16.9976 28.0202C16.8195 27.8421 16.5807 27.7378 16.3291 27.7281C16.0774 27.7183 15.8313 27.8039 15.64 27.9678ZM15 22.9678C15 22.7026 14.8946 22.4482 14.7071 22.2607C14.5196 22.0731 14.2652 21.9678 14 21.9678H13C12.7348 21.9678 12.4804 22.0731 12.2929 22.2607C12.1054 22.4482 12 22.7026 12 22.9678C12 23.233 12.1054 23.4873 12.2929 23.6749C12.4804 23.8624 12.7348 23.9678 13 23.9678H14C14.2652 23.9678 14.5196 23.8624 14.7071 23.6749C14.8946 23.4873 15 23.233 15 22.9678ZM22 15.9678C22.2652 15.9678 22.5196 15.8624 22.7071 15.6749C22.8946 15.4873 23 15.233 23 14.9678V13.9678C23 13.7026 22.8946 13.4482 22.7071 13.2607C22.5196 13.0731 22.2652 12.9678 22 12.9678C21.7348 12.9678 21.4804 13.0731 21.2929 13.2607C21.1054 13.4482 21 13.7026 21 13.9678V14.9678C21 15.233 21.1054 15.4873 21.2929 15.6749C21.4804 15.8624 21.7348 15.9678 22 15.9678ZM15.64 18.0178C15.8263 18.2025 16.0777 18.3067 16.34 18.3078C16.4716 18.3085 16.6021 18.2833 16.7239 18.2335C16.8457 18.1838 16.9566 18.1105 17.05 18.0178C17.2363 17.8304 17.3408 17.577 17.3408 17.3128C17.3408 17.0486 17.2363 16.7951 17.05 16.6078L16.34 15.8978C16.1487 15.7339 15.9026 15.6483 15.6509 15.6581C15.3993 15.6678 15.1605 15.7721 14.9824 15.9502C14.8043 16.1283 14.7 16.367 14.6903 16.6187C14.6806 16.8704 14.7662 17.1165 14.93 17.3078L15.64 18.0178ZM27.64 18.3078C27.9023 18.3067 28.1537 18.2025 28.34 18.0178L29.05 17.3078C29.1547 17.2181 29.2397 17.1078 29.2997 16.9837C29.3597 16.8597 29.3935 16.7245 29.3988 16.5868C29.4041 16.4491 29.3809 16.3118 29.3306 16.1835C29.2804 16.0551 29.2041 15.9386 29.1066 15.8411C29.0092 15.7437 28.8926 15.6674 28.7643 15.6171C28.636 15.5669 28.4987 15.5437 28.3609 15.549C28.2232 15.5543 28.0881 15.588 27.964 15.648C27.84 15.7081 27.7296 15.7931 27.64 15.8978L27 16.6078C26.8137 16.7951 26.7092 17.0486 26.7092 17.3128C26.7092 17.577 26.8137 17.8304 27 18.0178C27.1763 18.1931 27.4116 18.2965 27.66 18.3078H27.64ZM31 21.9678H30C29.7348 21.9678 29.4804 22.0731 29.2929 22.2607C29.1054 22.4482 29 22.7026 29 22.9678C29 23.233 29.1054 23.4873 29.2929 23.6749C29.4804 23.8624 29.7348 23.9678 30 23.9678H31C31.2652 23.9678 31.5196 23.8624 31.7071 23.6749C31.8946 23.4873 32 23.233 32 22.9678C32 22.7026 31.8946 22.4482 31.7071 22.2607C31.5196 22.0731 31.2652 21.9678 31 21.9678ZM22 29.9678C21.7348 29.9678 21.4804 30.0731 21.2929 30.2607C21.1054 30.4482 21 30.7026 21 30.9678V31.9678C21 32.233 21.1054 32.4873 21.2929 32.6749C21.4804 32.8624 21.7348 32.9678 22 32.9678C22.2652 32.9678 22.5196 32.8624 22.7071 32.6749C22.8946 32.4873 23 32.233 23 31.9678V30.9678C23 30.7026 22.8946 30.4482 22.7071 30.2607C22.5196 30.0731 22.2652 29.9678 22 29.9678ZM28.36 27.9678C28.17 27.8621 27.9508 27.8212 27.7355 27.8513C27.5202 27.8814 27.3205 27.9808 27.1668 28.1346C27.0131 28.2883 26.9136 28.4879 26.8835 28.7032C26.8534 28.9185 26.8943 29.1378 27 29.3278L27.71 30.0378C27.8974 30.224 28.1508 30.3286 28.415 30.3286C28.6792 30.3286 28.9326 30.224 29.12 30.0378C29.3063 29.8504 29.4108 29.597 29.4108 29.3328C29.4108 29.0686 29.3063 28.8151 29.12 28.6278L28.36 27.9678ZM22 17.4678C20.9122 17.4678 19.8488 17.7903 18.9444 18.3947C18.0399 18.999 17.3349 19.858 16.9187 20.863C16.5024 21.868 16.3935 22.9739 16.6057 24.0408C16.8179 25.1077 17.3417 26.0877 18.1109 26.8569C18.8801 27.626 19.8601 28.1499 20.927 28.3621C21.9939 28.5743 23.0998 28.4654 24.1048 28.0491C25.1098 27.6328 25.9687 26.9279 26.5731 26.0234C27.1774 25.1189 27.5 24.0556 27.5 22.9678C27.4974 21.5099 26.917 20.1125 25.8862 19.0816C24.8553 18.0507 23.4579 17.4704 22 17.4678ZM22 26.4678C21.3078 26.4678 20.6311 26.2625 20.0555 25.8779C19.4799 25.4933 19.0313 24.9467 18.7664 24.3072C18.5015 23.6676 18.4322 22.9639 18.5673 22.285C18.7023 21.606 19.0356 20.9824 19.5251 20.4929C20.0146 20.0034 20.6383 19.6701 21.3172 19.535C21.9961 19.4 22.6999 19.4693 23.3394 19.7342C23.9789 19.9991 24.5256 20.4477 24.9101 21.0233C25.2947 21.5988 25.5 22.2755 25.5 22.9678C25.5 23.896 25.1313 24.7863 24.4749 25.4426C23.8185 26.099 22.9283 26.4678 22 26.4678Z" fill="#FAFAFA"/>
</svg>
