<svg width="44" height="45" viewBox="0 0 44 45" fill="none" xmlns="http://www.w3.org/2000/svg">
<path fill-rule="evenodd" clip-rule="evenodd" d="M12 22.9678C12 22.4155 12.4477 21.9678 13 21.9678H31C31.5523 21.9678 32 22.4155 32 22.9678C32 23.5201 31.5523 23.9678 31 23.9678H13C12.4477 23.9678 12 23.5201 12 22.9678Z" fill="#FAFAFA"/>
<path fill-rule="evenodd" clip-rule="evenodd" d="M12 16.9678C12 16.4155 12.4477 15.9678 13 15.9678H31C31.5523 15.9678 32 16.4155 32 16.9678C32 17.5201 31.5523 17.9678 31 17.9678H13C12.4477 17.9678 12 17.5201 12 16.9678Z" fill="#FAFAFA"/>
<path fill-rule="evenodd" clip-rule="evenodd" d="M12 28.9678C12 28.4155 12.4477 27.9678 13 27.9678H31C31.5523 27.9678 32 28.4155 32 28.9678C32 29.5201 31.5523 29.9678 31 29.9678H13C12.4477 29.9678 12 29.5201 12 28.9678Z" fill="#FAFAFA"/>
</svg>
