<svg width="44" height="45" viewBox="0 0 44 45" fill="none" xmlns="http://www.w3.org/2000/svg">
<path d="M10 10.9678H34V34.9678H10V10.9678ZM32.034 29.2438C31.859 28.1488 31.146 27.2288 29.031 26.3708C28.295 26.0258 27.477 25.7858 27.234 25.2308C27.143 24.9008 27.129 24.7208 27.188 24.5258C27.338 23.8798 28.103 23.6858 28.703 23.8658C29.093 23.9858 29.453 24.2858 29.679 24.7658C30.713 24.0898 30.713 24.0898 31.434 23.6408C31.164 23.2208 31.03 23.0398 30.848 22.8608C30.218 22.1558 29.379 21.7958 28.014 21.8268L27.309 21.9158C26.633 22.0808 25.989 22.4408 25.599 22.9208C24.459 24.2118 24.788 26.4618 26.168 27.3918C27.533 28.4118 29.529 28.6358 29.784 29.5968C30.024 30.7668 28.914 31.1418 27.818 31.0068C27.007 30.8268 26.558 30.4208 26.063 29.6708L24.233 30.7218C24.443 31.2018 24.683 31.4108 25.043 31.8308C26.783 33.5868 31.133 33.4968 31.914 30.8268C31.943 30.7368 32.154 30.1218 31.988 29.1768L32.034 29.2438ZM23.051 21.9988H20.803C20.803 23.9368 20.794 25.8628 20.794 27.8038C20.794 29.0358 20.857 30.1668 20.656 30.5148C20.326 31.2038 19.476 31.1158 19.09 30.9948C18.694 30.7988 18.493 30.5288 18.26 30.1398C18.197 30.0348 18.15 29.9438 18.133 29.9438L16.308 31.0688C16.613 31.6988 17.058 32.2408 17.632 32.5858C18.487 33.0958 19.636 33.2608 20.839 32.9908C21.622 32.7648 22.297 32.2998 22.65 31.5798C23.16 30.6498 23.052 29.5098 23.047 28.2338C23.059 26.1798 23.047 24.1248 23.047 22.0548L23.051 21.9988Z" fill="#FAFAFA"/>
</svg>
