<svg width="44" height="45" viewBox="0 0 44 45" fill="none" xmlns="http://www.w3.org/2000/svg">
<path d="M21.5723 10.9678C21.396 10.9678 21.2625 10.9691 21.2139 10.9745C21.1623 10.9798 20.998 10.9955 20.8503 11.0073C17.4415 11.3146 14.2486 13.1536 12.2263 15.9801C11.1002 17.5518 10.38 19.3344 10.108 21.2228C10.0118 21.8818 10 22.0765 10 22.9702C10 23.8639 10.012 24.0586 10.108 24.7178C10.76 29.2238 13.9671 33.0097 18.3167 34.4123C19.0956 34.6634 19.9167 34.8346 20.8504 34.9378C21.214 34.9778 22.7858 34.9778 23.1494 34.9378C24.7611 34.7595 26.1266 34.3608 27.4731 33.6735C27.6796 33.5679 27.7195 33.5398 27.6914 33.5162C27.6726 33.5023 26.7927 32.3224 25.7371 30.8962L23.8181 28.3042L21.4134 24.7459C20.0903 22.7895 19.0017 21.1899 18.9923 21.1899C18.9829 21.1873 18.9736 22.7686 18.9688 24.6989C18.9621 28.0791 18.9595 28.2151 18.9172 28.2949C18.8562 28.4099 18.8092 28.4567 18.7108 28.5083C18.6358 28.5457 18.57 28.5528 18.2158 28.5528H17.8098L17.702 28.4848C17.6351 28.4429 17.5808 28.3837 17.5448 28.3136L17.4955 28.208L17.5008 23.505L17.5075 18.7996L17.5801 18.7081C17.6177 18.6588 17.6975 18.5956 17.7537 18.5651C17.8499 18.5181 17.8875 18.5134 18.2933 18.5134C18.772 18.5134 18.8517 18.5321 18.976 18.6681C19.0113 18.7058 20.3133 20.6668 21.871 23.0289C23.4482 25.4197 25.0263 27.8099 26.6054 30.1995L28.5056 33.0777L28.6016 33.0144C29.4534 32.4608 30.3541 31.6726 31.0673 30.8517C32.5852 29.1088 33.5636 26.9837 33.892 24.7177C33.9881 24.0586 33.9998 23.8637 33.9998 22.9702C33.9998 22.0765 33.9878 21.8818 33.892 21.2226C33.2398 16.7166 30.0328 12.9307 25.6833 11.5281C24.9161 11.2794 24.0997 11.1081 23.1848 11.0049C23.0158 10.9873 22.1011 10.9682 21.5723 10.9678ZM25.6408 18.1848C25.9881 18.1848 26.049 18.1901 26.1265 18.2318C26.2392 18.288 26.3305 18.396 26.3635 18.5085C26.3821 18.5695 26.3869 19.8738 26.3821 22.8129L26.3754 27.0304L25.6318 25.8904L24.8857 24.7504V21.6844C24.8857 19.7024 24.895 18.5881 24.9091 18.5342C24.9466 18.4029 25.0287 18.2996 25.1414 18.2387C25.2375 18.1893 25.2724 18.1848 25.6408 18.1848Z" fill="#FAFAFA"/>
</svg>
