<svg width="44" height="45" viewBox="0 0 44 45" fill="none" xmlns="http://www.w3.org/2000/svg">
<path d="M10 12.6868C10 11.7373 10.789 10.9678 11.7625 10.9678H32.2375C33.211 10.9678 34 11.7373 34 12.6868V33.2488C34 34.1983 33.211 34.9678 32.2375 34.9678H11.7625C10.789 34.9678 10 34.1983 10 33.2488V12.6868ZM17.4145 31.0588V20.2213H13.813V31.0588H17.4145ZM15.6145 18.7408C16.87 18.7408 17.6515 17.9098 17.6515 16.8688C17.629 15.8053 16.8715 14.9968 15.6385 14.9968C14.4055 14.9968 13.6 15.8068 13.6 16.8688C13.6 17.9098 14.3815 18.7408 15.5905 18.7408H15.6145ZM22.9765 31.0588V25.0063C22.9765 24.6823 23.0005 24.3583 23.0965 24.1273C23.356 23.4808 23.9485 22.8103 24.9445 22.8103C26.248 22.8103 26.7685 23.8033 26.7685 25.2613V31.0588H30.37V24.8428C30.37 21.5128 28.594 19.9648 26.224 19.9648C24.313 19.9648 23.4565 21.0148 22.9765 21.7543V21.7918H22.9525C22.9605 21.7793 22.9685 21.7668 22.9765 21.7543V20.2213H19.3765C19.4215 21.2383 19.3765 31.0588 19.3765 31.0588H22.9765Z" fill="#FAFAFA"/>
</svg>
