<svg width="44" height="45" viewBox="0 0 44 45" fill="none" xmlns="http://www.w3.org/2000/svg">
<path d="M24.23 22.9717C24.23 23.5646 23.9946 24.1332 23.5754 24.5525C23.1563 24.9718 22.5879 25.2075 21.995 25.2077C21.402 25.2077 20.8332 24.9722 20.4139 24.5528C19.9946 24.1335 19.759 23.5648 19.759 22.9717C19.759 22.3789 19.9944 21.8103 20.4136 21.391C20.8327 20.9717 21.4011 20.736 21.994 20.7357C22.587 20.7357 23.1558 20.9713 23.5751 21.3906C23.9944 21.81 24.23 22.3787 24.23 22.9717ZM26.878 12.2817C25.532 12.2817 23.771 13.2417 21.99 14.9037C20.21 13.2507 18.448 12.3017 17.103 12.3017C16.693 12.3017 16.32 12.3947 15.997 12.5797C14.622 13.3727 14.314 15.8437 15.024 18.9447C11.98 19.8847 10 21.3877 10 22.9717C10 24.5617 11.99 26.0687 15.043 27.0017C14.339 30.1147 14.653 32.5897 16.031 33.3817C16.351 33.5687 16.721 33.6567 17.133 33.6567C18.478 33.6567 20.24 32.6967 22.021 31.0327C23.801 32.6867 25.563 33.6357 26.908 33.6357C27.318 33.6357 27.691 33.5457 28.014 33.3607C29.388 32.5687 29.697 30.0977 28.987 26.9957C32.02 26.0637 34 24.5577 34 22.9717C34 21.3817 32.01 19.8747 28.957 18.9397C29.661 15.8297 29.347 13.3527 27.969 12.5597C27.651 12.3757 27.282 12.2827 26.878 12.2817ZM26.873 13.3717V13.3777C27.098 13.3777 27.279 13.4217 27.431 13.5047C28.097 13.8867 28.386 15.3397 28.161 17.2087C28.107 17.6687 28.019 18.1537 27.911 18.6487C26.951 18.4127 25.905 18.2317 24.804 18.1147C24.144 17.2097 23.459 16.3877 22.769 15.6677C24.361 14.1877 25.856 13.3757 26.874 13.3727L26.873 13.3717ZM17.103 13.3917C18.115 13.3917 19.617 14.1997 21.213 15.6717C20.527 16.3917 19.843 17.2087 19.193 18.1137C18.086 18.2307 17.039 18.4117 16.08 18.6517C15.968 18.1617 15.885 17.6877 15.826 17.2317C15.596 15.3637 15.88 13.9117 16.54 13.5247C16.73 13.4347 16.94 13.3967 17.103 13.3917ZM21.985 16.4417C22.44 16.9097 22.895 17.4337 23.345 18.0057C22.905 17.9857 22.455 17.9717 22 17.9717C21.54 17.9717 21.085 17.9817 20.64 18.0057C21.08 17.4337 21.535 16.9107 21.985 16.4417ZM22 19.0677C22.74 19.0677 23.477 19.1017 24.202 19.1607C24.608 19.7427 25.004 20.3637 25.385 21.0207C25.757 21.6607 26.095 22.3107 26.403 22.9667C26.095 23.6217 25.757 24.2767 25.39 24.9167C25.01 25.5767 24.617 26.2047 24.21 26.7867C23.482 26.8497 22.744 26.8847 22 26.8847C21.26 26.8847 20.523 26.8497 19.798 26.7917C19.392 26.2097 18.996 25.5877 18.615 24.9317C18.243 24.2917 17.905 23.6417 17.597 22.9857C17.9 22.3287 18.243 21.6727 18.61 21.0317C18.99 20.3717 19.383 19.7457 19.79 19.1637C20.518 19.0997 21.256 19.0657 22 19.0657V19.0677ZM18.365 19.3217C18.125 19.6987 17.885 20.0847 17.661 20.4817C17.436 20.8717 17.226 21.2637 17.026 21.6557C16.761 20.9997 16.536 20.3457 16.35 19.7087C16.99 19.5587 17.665 19.4247 18.365 19.3217ZM25.625 19.3217C26.32 19.4247 26.99 19.5517 27.631 19.7087C27.451 20.3407 27.226 20.9907 26.971 21.6417C26.771 21.2517 26.561 20.8587 26.331 20.4677C26.106 20.0757 25.866 19.6937 25.626 19.3217H25.625ZM28.688 19.9967C29.172 20.1467 29.632 20.3137 30.063 20.4947C31.795 21.2347 32.915 22.2027 32.915 22.9707C32.91 23.7387 31.79 24.7107 30.058 25.4457C29.638 25.6257 29.178 25.7877 28.703 25.9387C28.423 24.9807 28.057 23.9827 27.603 22.9587C28.053 21.9417 28.413 20.9487 28.688 19.9947V19.9967ZM15.293 20.0007C15.571 20.9607 15.938 21.9577 16.393 22.9807C15.943 23.9977 15.581 24.9907 15.307 25.9447C14.823 25.7947 14.363 25.6267 13.937 25.4447C12.205 24.7077 11.085 23.7387 11.085 22.9707C11.085 22.2027 12.205 21.2287 13.937 20.4947C14.357 20.3147 14.817 20.1527 15.293 20.0007ZM26.971 24.2807C27.236 24.9377 27.461 25.5927 27.647 26.2287C27.007 26.3857 26.331 26.5187 25.631 26.6187C25.871 26.2437 26.111 25.8567 26.336 25.4607C26.561 25.0707 26.77 24.6727 26.971 24.2807ZM17.026 24.3007C17.226 24.6927 17.436 25.0837 17.666 25.4757C17.896 25.8657 18.131 26.2477 18.371 26.6187C17.676 26.5167 17.006 26.3887 16.365 26.2327C16.545 25.6027 16.771 24.9507 17.025 24.2997L17.026 24.3007ZM27.92 27.2877C28.032 27.7807 28.12 28.2557 28.174 28.7107C28.404 30.5787 28.12 32.0307 27.46 32.4187C27.313 32.5087 27.122 32.5467 26.897 32.5467C25.885 32.5467 24.383 31.7397 22.787 30.2667C23.473 29.5467 24.157 28.7307 24.807 27.8267C25.914 27.7087 26.961 27.5277 27.92 27.2877ZM16.09 27.2977C17.05 27.5317 18.096 27.7127 19.197 27.8297C19.857 28.7347 20.542 29.5567 21.232 30.2757C19.637 31.7587 18.14 32.5707 17.122 32.5707C16.902 32.5657 16.716 32.5207 16.569 32.4387C15.903 32.0587 15.614 30.6047 15.839 28.7357C15.893 28.2757 15.982 27.7917 16.09 27.2977ZM20.65 27.9377C21.09 27.9577 21.54 27.9717 21.995 27.9717C22.455 27.9717 22.91 27.9617 23.355 27.9377C22.915 28.5097 22.46 29.0327 22.01 29.5027C21.555 29.0327 21.1 28.5097 20.65 27.9377Z" fill="#FAFAFA"/>
</svg>
