<svg width="44" height="45" viewBox="0 0 44 45" fill="none" xmlns="http://www.w3.org/2000/svg">
<path d="M22.001 15.7678C18.801 15.7678 16.801 17.3678 16.001 20.5678C17.201 18.9678 18.601 18.3678 20.201 18.7678C21.114 18.9958 21.766 19.6578 22.489 20.3918C23.666 21.5858 25.027 22.9678 28.001 22.9678C31.201 22.9678 33.201 21.3678 34.001 18.1678C32.801 19.7678 31.401 20.3678 29.801 19.9678C28.888 19.7398 28.236 19.0778 27.513 18.3438C26.337 17.1498 24.976 15.7678 22.001 15.7678ZM16.001 22.9678C12.801 22.9678 10.801 24.5678 10.001 27.7678C11.201 26.1678 12.601 25.5678 14.201 25.9678C15.114 26.1958 15.766 26.8578 16.489 27.5918C17.666 28.7858 19.027 30.1678 22.001 30.1678C25.201 30.1678 27.201 28.5678 28.001 25.3678C26.801 26.9678 25.401 27.5678 23.801 27.1678C22.888 26.9398 22.236 26.2778 21.513 25.5438C20.337 24.3498 18.976 22.9678 16.001 22.9678Z" fill="#FAFAFA"/>
</svg>
