<svg width="44" height="45" viewBox="0 0 44 45" fill="none" xmlns="http://www.w3.org/2000/svg">
<path d="M29 14.9678H15C14.2044 14.9678 13.4413 15.2838 12.8787 15.8465C12.3161 16.4091 12 17.1721 12 17.9678V27.9678C12 28.7634 12.3161 29.5265 12.8787 30.0891C13.4413 30.6517 14.2044 30.9678 15 30.9678H29C29.7956 30.9678 30.5587 30.6517 31.1213 30.0891C31.6839 29.5265 32 28.7634 32 27.9678V17.9678C32 17.1721 31.6839 16.4091 31.1213 15.8465C30.5587 15.2838 29.7956 14.9678 29 14.9678ZM28.59 16.9678L22.71 22.8478C22.617 22.9415 22.5064 23.0159 22.3846 23.0667C22.2627 23.1174 22.132 23.1436 22 23.1436C21.868 23.1436 21.7373 23.1174 21.6154 23.0667C21.4936 23.0159 21.383 22.9415 21.29 22.8478L15.41 16.9678H28.59ZM30 27.9678C30 28.233 29.8946 28.4873 29.7071 28.6749C29.5196 28.8624 29.2652 28.9678 29 28.9678H15C14.7348 28.9678 14.4804 28.8624 14.2929 28.6749C14.1054 28.4873 14 28.233 14 27.9678V18.3778L19.88 24.2578C20.4425 24.8196 21.205 25.1351 22 25.1351C22.795 25.1351 23.5575 24.8196 24.12 24.2578L30 18.3778V27.9678Z" fill="#FAFAFA"/>
</svg>
