<svg width="71" height="36" viewBox="0 0 71 36" fill="none" xmlns="http://www.w3.org/2000/svg">
<path d="M0.0340909 35V0.0909081H7.41477V28.9148H22.3807V35H0.0340909ZM33.1761 35H25.267L37.3182 0.0909081H46.8295L58.8636 35H50.9545L42.2102 8.06818H41.9375L33.1761 35ZM32.6818 21.2784H51.3636V27.0398H32.6818V21.2784Z" fill="#FAFAFA"/>
<path d="M66.1733 35.4432C65.0483 35.4432 64.0824 35.0455 63.2756 34.25C62.4801 33.4432 62.0824 32.4773 62.0824 31.3523C62.0824 30.2386 62.4801 29.2841 63.2756 28.4886C64.0824 27.6932 65.0483 27.2955 66.1733 27.2955C67.2642 27.2955 68.2188 27.6932 69.0369 28.4886C69.8551 29.2841 70.2642 30.2386 70.2642 31.3523C70.2642 32.1023 70.071 32.7898 69.6847 33.4148C69.3097 34.0284 68.8153 34.5227 68.2017 34.8977C67.5881 35.2614 66.9119 35.4432 66.1733 35.4432Z" fill="#8B5CF6"/>
</svg>
