<svg width="24" height="25" viewBox="0 0 24 25" fill="none" xmlns="http://www.w3.org/2000/svg">
<path d="M12 0.967773C5.37 0.967773 0 6.33777 0 12.9678C0 18.2778 3.435 22.7628 8.205 24.3528C8.805 24.4578 9.03 24.0978 9.03 23.7828C9.03 23.4978 9.015 22.5528 9.015 21.5478C6 22.1028 5.22 20.8128 4.98 20.1378C4.845 19.7928 4.26 18.7278 3.75 18.4428C3.33 18.2178 2.73 17.6628 3.735 17.6478C4.68 17.6328 5.355 18.5178 5.58 18.8778C6.66 20.6928 8.385 20.1828 9.075 19.8678C9.18 19.0878 9.495 18.5628 9.84 18.2628C7.17 17.9628 4.38 16.9278 4.38 12.3378C4.38 11.0328 4.845 9.95277 5.61 9.11277C5.49 8.81277 5.07 7.58277 5.73 5.93277C5.73 5.93277 6.735 5.61777 9.03 7.16277C9.99 6.89277 11.01 6.75777 12.03 6.75777C13.05 6.75777 14.07 6.89277 15.03 7.16277C17.325 5.60277 18.33 5.93277 18.33 5.93277C18.99 7.58277 18.57 8.81277 18.45 9.11277C19.215 9.95277 19.68 11.0178 19.68 12.3378C19.68 16.9428 16.875 17.9628 14.205 18.2628C14.64 18.6378 15.015 19.3578 15.015 20.4828C15.015 22.0878 15 23.3778 15 23.7828C15 24.0978 15.225 24.4728 15.825 24.3528C18.2073 23.5488 20.2775 22.0178 21.744 19.9754C23.2106 17.933 23.9996 15.4821 24 12.9678C24 6.33777 18.63 0.967773 12 0.967773Z" fill="black"/>
</svg>
