<svg width="24" height="25" viewBox="0 0 24 25" fill="none" xmlns="http://www.w3.org/2000/svg">
<path d="M0 2.68677C0 1.73727 0.789 0.967773 1.7625 0.967773H22.2375C23.211 0.967773 24 1.73727 24 2.68677V23.2488C24 24.1983 23.211 24.9678 22.2375 24.9678H1.7625C0.789 24.9678 0 24.1983 0 23.2488V2.68677ZM7.4145 21.0588V10.2213H3.813V21.0588H7.4145ZM5.6145 8.74077C6.87 8.74077 7.6515 7.90977 7.6515 6.86877C7.629 5.80527 6.8715 4.99677 5.6385 4.99677C4.4055 4.99677 3.6 5.80677 3.6 6.86877C3.6 7.90977 4.3815 8.74077 5.5905 8.74077H5.6145ZM12.9765 21.0588V15.0063C12.9765 14.6823 13.0005 14.3583 13.0965 14.1273C13.356 13.4808 13.9485 12.8103 14.9445 12.8103C16.248 12.8103 16.7685 13.8033 16.7685 15.2613V21.0588H20.37V14.8428C20.37 11.5128 18.594 9.96477 16.224 9.96477C14.313 9.96477 13.4565 11.0148 12.9765 11.7543V11.7918H12.9525C12.9605 11.7793 12.9685 11.7668 12.9765 11.7543V10.2213H9.3765C9.4215 11.2383 9.3765 21.0588 9.3765 21.0588H12.9765Z" fill="black"/>
</svg>
