<svg width="24" height="25" viewBox="0 0 24 25" fill="none" xmlns="http://www.w3.org/2000/svg">
<path d="M19 4.96777H5C4.20435 4.96777 3.44129 5.28384 2.87868 5.84645C2.31607 6.40906 2 7.17212 2 7.96777V17.9678C2 18.7634 2.31607 19.5265 2.87868 20.0891C3.44129 20.6517 4.20435 20.9678 5 20.9678H19C19.7956 20.9678 20.5587 20.6517 21.1213 20.0891C21.6839 19.5265 22 18.7634 22 17.9678V7.96777C22 7.17212 21.6839 6.40906 21.1213 5.84645C20.5587 5.28384 19.7956 4.96777 19 4.96777ZM18.59 6.96777L12.71 12.8478C12.617 12.9415 12.5064 13.0159 12.3846 13.0667C12.2627 13.1174 12.132 13.1436 12 13.1436C11.868 13.1436 11.7373 13.1174 11.6154 13.0667C11.4936 13.0159 11.383 12.9415 11.29 12.8478L5.41 6.96777H18.59ZM20 17.9678C20 18.233 19.8946 18.4873 19.7071 18.6749C19.5196 18.8624 19.2652 18.9678 19 18.9678H5C4.73478 18.9678 4.48043 18.8624 4.29289 18.6749C4.10536 18.4873 4 18.233 4 17.9678V8.37777L9.88 14.2578C10.4425 14.8196 11.205 15.1351 12 15.1351C12.795 15.1351 13.5575 14.8196 14.12 14.2578L20 8.37777V17.9678Z" fill="#171717"/>
</svg>
